<svg width="1009" height="495" viewBox="0 0 1009 495" fill="none" xmlns="http://www.w3.org/2000/svg">
<g opacity="0.29827">
<path d="M1008.08 162.448L443.182 -357.858V-748.19L28.1096 -771C24.9043 -763.456 4.36709 -741.714 7.57176 -729.596C11.43 -715.102 30.8387 -719.735 36.4776 -710.409C43.0661 -699.42 31.7291 -654.749 28.3457 -641.86C21.8759 -617.445 7.09676 -597.665 2.82235 -573.25C-4.35982 -532.263 10.1824 -535.53 37.7242 -509.927C84.141 -466.742 46.9244 -421.952 58.6176 -371.223C68.1146 -329.878 109.605 -308.554 124.8 -267.211C136.553 -235.37 152.697 -227.233 177.746 -203.947C177.153 -218.084 164.51 -259.785 188.253 -256.102C211.817 -252.478 202.736 -217.669 207.247 -203.115C211.045 -190.997 237.933 -166.761 215.616 -155.593C208.196 -151.91 187.066 -166.582 178.577 -170.503C184.572 -151.791 180.774 -132.367 190.271 -114.487C201.608 -93.162 213.835 -101.359 228.853 -89.7754C244.344 -77.8355 242.683 -64.1137 235.797 -46.0554C228.615 -27.2247 221.196 -30.1352 232.592 -7.44342C240.843 8.95119 254.85 29.7421 266.9 42.2164C273.904 49.4634 281.502 51.1267 288.506 60.3932C294.323 68.1155 292.067 78.2142 299.012 85.1638C310.883 97.1037 331.006 97.282 340.384 112.904C350.831 130.309 338.96 143.437 369.706 141.833C371.309 176.643 377.897 208.185 377.541 242.994C394.695 249.825 422.414 241.687 440.399 238.063C458.266 262.18 481.355 245.429 501.774 258.558C510.678 264.26 508.837 278.517 514.239 283.506C525.339 293.723 533.529 287.308 547.301 290.872C557.51 293.486 565.404 300.97 575.138 303.703C584.338 306.257 599.475 300.258 606.301 308.396C614.492 318.138 600.78 335.958 613.127 343.799C623.395 350.333 638.115 334.77 648.088 337.027C659.721 339.7 693.079 370.174 701.271 380.212C710.59 391.677 719.969 413.062 725.25 427.793C733.501 450.841 732.373 462.127 749.408 478.998C760.27 489.75 749.942 490.522 767.63 493.67C779.204 495.749 794.518 487.374 806.212 486.067C830.549 483.394 855.122 488.027 879.102 483.453C901.421 479.176 922.729 472.166 945.64 468.899C965.465 466.048 1000.37 468.246 1017.94 458.801C1036.99 448.643 1038.71 425.654 1011.17 429.932C1008.97 415.26 1018.77 395.003 1007.85 384.847C1023.04 364.056 1028.56 349.384 1030.93 323.959C1032 312.792 1032.48 300.436 1038 291.05C1043.4 281.783 1058.59 276.259 1061.56 268.299C1066.13 255.943 1058.83 250.419 1053.25 243.528C1049.69 239.073 1039.54 241.212 1036.63 237.291C1031.23 230.103 1036.57 222.678 1033.6 215.431C1024.94 194.462 1014.61 186.205 1008.08 162.444C1008.26 166.424 1008.44 170.463 1008.2 174.384" stroke="white" stroke-width="2" stroke-linecap="round" stroke-linejoin="round"/>
</g>
<path d="M729.114 82.9394C720.546 106.321 740.614 114.526 756.675 129.807C761.434 134.336 761.888 141.817 756.879 146.342C746.107 156.074 705.264 141.917 707.854 154.745C710.53 167.994 745.061 186.531 746.618 187.799C760.284 198.932 764.735 227.174 757.208 242.658C751.852 253.676 716.342 249.962 705.172 246.293C632.024 222.266 664.985 225.131 582.817 217.67C576.527 217.099 569.935 216.806 563.894 218.65C557.671 220.549 557.869 228.339 559.957 232.55C566.876 246.506 597.849 270.178 589.514 288.523C586.956 294.152 580.963 297.707 578.264 303.27C576.151 307.627 576.385 312.772 575.445 317.523" stroke="white" stroke-width="2"/>
<path fill-rule="evenodd" clip-rule="evenodd" d="M573.5 325C577.09 325 580 322.09 580 318.5C580 314.91 577.09 312 573.5 312C569.91 312 567 314.91 567 318.5C567 322.09 569.91 325 573.5 325Z" fill="#4AF6CD"/>
<path fill-rule="evenodd" clip-rule="evenodd" d="M661 362C662.657 362 664 360.657 664 359C664 357.343 662.657 356 661 356C659.343 356 658 357.343 658 359C658 360.657 659.343 362 661 362Z" fill="#4AF6CD"/>
<path fill-rule="evenodd" clip-rule="evenodd" d="M725 470C726.657 470 728 468.657 728 467C728 465.343 726.657 464 725 464C723.343 464 722 465.343 722 467C722 468.657 723.343 470 725 470Z" fill="#4AF6CD"/>
<path fill-rule="evenodd" clip-rule="evenodd" d="M365 227C366.657 227 368 225.657 368 224C368 222.343 366.657 221 365 221C363.343 221 362 222.343 362 224C362 225.657 363.343 227 365 227Z" fill="#4AF6CD"/>
<path fill-rule="evenodd" clip-rule="evenodd" d="M729.5 90C733.09 90 736 87.0899 736 83.5C736 79.9101 733.09 77 729.5 77C725.91 77 723 79.9101 723 83.5C723 87.0899 725.91 90 729.5 90Z" fill="#4AF6CD"/>
<path d="M398.41 309.976L396.17 321H394.218L392.186 311.768L390.138 321H388.234L385.994 309.976H387.482L389.258 319.672L391.386 309.976H393.002L395.178 319.672L397.018 309.976H398.41ZM406.544 316.536C406.544 316.781 406.534 317.032 406.512 317.288H401.136C401.2 318.216 401.435 318.899 401.84 319.336C402.246 319.773 402.768 319.992 403.408 319.992C403.814 319.992 404.187 319.933 404.528 319.816C404.87 319.699 405.227 319.512 405.6 319.256L406.24 320.136C405.344 320.84 404.363 321.192 403.296 321.192C402.123 321.192 401.206 320.808 400.544 320.04C399.894 319.272 399.568 318.216 399.568 316.872C399.568 315.997 399.707 315.224 399.984 314.552C400.272 313.869 400.678 313.336 401.2 312.952C401.734 312.568 402.358 312.376 403.072 312.376C404.192 312.376 405.051 312.744 405.648 313.48C406.246 314.216 406.544 315.235 406.544 316.536ZM405.088 316.104C405.088 315.272 404.923 314.637 404.592 314.2C404.262 313.763 403.766 313.544 403.104 313.544C401.899 313.544 401.243 314.429 401.136 316.2H405.088V316.104ZM411.183 312.376C411.759 312.376 412.276 312.456 412.735 312.616C413.194 312.776 413.631 313.016 414.047 313.336L413.423 314.264C413.039 314.019 412.671 313.837 412.319 313.72C411.978 313.603 411.615 313.544 411.231 313.544C410.751 313.544 410.372 313.645 410.095 313.848C409.818 314.04 409.679 314.307 409.679 314.648C409.679 314.989 409.807 315.256 410.063 315.448C410.33 315.64 410.804 315.827 411.487 316.008C412.426 316.243 413.124 316.563 413.583 316.968C414.052 317.373 414.287 317.928 414.287 318.632C414.287 319.464 413.962 320.099 413.311 320.536C412.671 320.973 411.887 321.192 410.959 321.192C409.679 321.192 408.618 320.824 407.775 320.088L408.559 319.192C409.274 319.736 410.063 320.008 410.927 320.008C411.482 320.008 411.919 319.896 412.239 319.672C412.57 319.437 412.735 319.123 412.735 318.728C412.735 318.44 412.676 318.211 412.559 318.04C412.442 317.859 412.239 317.704 411.951 317.576C411.663 317.437 411.242 317.293 410.687 317.144C409.791 316.909 409.14 316.595 408.735 316.2C408.34 315.805 408.143 315.304 408.143 314.696C408.143 314.259 408.271 313.864 408.527 313.512C408.794 313.149 409.156 312.872 409.615 312.68C410.084 312.477 410.607 312.376 411.183 312.376ZM420.62 320.616C420.065 321 419.436 321.192 418.732 321.192C418.017 321.192 417.457 320.989 417.052 320.584C416.657 320.168 416.46 319.571 416.46 318.792V313.704H414.988V312.568H416.46V310.664L417.932 310.488V312.568H419.932L419.772 313.704H417.932V318.728C417.932 319.165 418.006 319.485 418.156 319.688C418.316 319.88 418.577 319.976 418.94 319.976C419.27 319.976 419.644 319.864 420.06 319.64L420.62 320.616ZM429.179 309.784C429.915 309.784 430.545 309.891 431.067 310.104C431.59 310.307 432.097 310.627 432.587 311.064L431.755 311.992C431.339 311.661 430.929 311.421 430.523 311.272C430.129 311.112 429.702 311.032 429.243 311.032C428.667 311.032 428.193 311.165 427.819 311.432C427.446 311.699 427.259 312.088 427.259 312.6C427.259 312.92 427.323 313.192 427.451 313.416C427.579 313.629 427.814 313.827 428.155 314.008C428.507 314.189 429.014 314.381 429.675 314.584C430.369 314.797 430.945 315.027 431.403 315.272C431.862 315.517 432.23 315.859 432.507 316.296C432.795 316.723 432.939 317.267 432.939 317.928C432.939 318.568 432.779 319.133 432.459 319.624C432.15 320.115 431.697 320.499 431.099 320.776C430.513 321.053 429.814 321.192 429.003 321.192C427.478 321.192 426.23 320.717 425.259 319.768L426.091 318.84C426.539 319.203 426.993 319.48 427.451 319.672C427.91 319.853 428.422 319.944 428.987 319.944C429.67 319.944 430.235 319.779 430.683 319.448C431.131 319.107 431.355 318.616 431.355 317.976C431.355 317.613 431.286 317.315 431.147 317.08C431.009 316.835 430.769 316.616 430.427 316.424C430.097 316.232 429.611 316.04 428.971 315.848C427.841 315.507 427.014 315.096 426.491 314.616C425.969 314.136 425.707 313.485 425.707 312.664C425.707 312.109 425.851 311.613 426.139 311.176C426.438 310.739 426.849 310.397 427.371 310.152C427.905 309.907 428.507 309.784 429.179 309.784ZM439.066 312.376C439.834 312.376 440.431 312.605 440.858 313.064C441.295 313.523 441.514 314.152 441.514 314.952V321H440.042V315.16C440.042 314.563 439.925 314.141 439.69 313.896C439.466 313.651 439.135 313.528 438.698 313.528C438.261 313.528 437.871 313.656 437.53 313.912C437.189 314.168 436.869 314.531 436.57 315V321H435.098V309.192L436.57 309.032V313.736C437.231 312.829 438.063 312.376 439.066 312.376ZM447.641 312.376C448.825 312.376 449.742 312.771 450.393 313.56C451.054 314.349 451.385 315.421 451.385 316.776C451.385 317.651 451.236 318.424 450.937 319.096C450.638 319.757 450.206 320.275 449.641 320.648C449.076 321.011 448.404 321.192 447.625 321.192C446.441 321.192 445.518 320.797 444.857 320.008C444.196 319.219 443.865 318.147 443.865 316.792C443.865 315.917 444.014 315.149 444.313 314.488C444.612 313.816 445.044 313.299 445.609 312.936C446.174 312.563 446.852 312.376 447.641 312.376ZM447.641 313.56C446.18 313.56 445.449 314.637 445.449 316.792C445.449 318.936 446.174 320.008 447.625 320.008C449.076 320.008 449.801 318.931 449.801 316.776C449.801 314.632 449.081 313.56 447.641 313.56ZM457.481 312.376C457.78 312.376 458.057 312.408 458.313 312.472L458.041 313.912C457.785 313.848 457.54 313.816 457.305 313.816C456.782 313.816 456.361 314.008 456.041 314.392C455.721 314.776 455.47 315.373 455.289 316.184V321H453.817V312.568H455.081L455.225 314.28C455.449 313.651 455.753 313.176 456.137 312.856C456.521 312.536 456.969 312.376 457.481 312.376ZM465.872 316.536C465.872 316.781 465.862 317.032 465.84 317.288H460.464C460.528 318.216 460.763 318.899 461.168 319.336C461.574 319.773 462.096 319.992 462.736 319.992C463.142 319.992 463.515 319.933 463.856 319.816C464.198 319.699 464.555 319.512 464.928 319.256L465.568 320.136C464.672 320.84 463.691 321.192 462.624 321.192C461.451 321.192 460.534 320.808 459.872 320.04C459.222 319.272 458.896 318.216 458.896 316.872C458.896 315.997 459.035 315.224 459.312 314.552C459.6 313.869 460.006 313.336 460.528 312.952C461.062 312.568 461.686 312.376 462.4 312.376C463.52 312.376 464.379 312.744 464.976 313.48C465.574 314.216 465.872 315.235 465.872 316.536ZM464.416 316.104C464.416 315.272 464.251 314.637 463.92 314.2C463.59 313.763 463.094 313.544 462.432 313.544C461.227 313.544 460.571 314.429 460.464 316.2H464.416V316.104ZM474.41 308.184V322.568H474.058V308.184H474.41ZM493.237 321H491.765L491.381 316.024C491.221 314.072 491.131 312.573 491.109 311.528L488.725 319.752H487.301L484.789 311.512C484.789 312.845 484.72 314.387 484.581 316.136L484.213 321H482.773L483.685 309.976H485.733L488.053 317.992L490.261 309.976H492.325L493.237 321ZM501.434 319.032C501.434 319.373 501.493 319.629 501.61 319.8C501.728 319.96 501.904 320.083 502.138 320.168L501.802 321.192C501.365 321.139 501.013 321.016 500.746 320.824C500.48 320.632 500.282 320.333 500.154 319.928C499.589 320.771 498.752 321.192 497.642 321.192C496.81 321.192 496.154 320.957 495.674 320.488C495.194 320.019 494.954 319.405 494.954 318.648C494.954 317.752 495.274 317.064 495.914 316.584C496.565 316.104 497.482 315.864 498.666 315.864H499.962V315.24C499.962 314.643 499.818 314.216 499.53 313.96C499.242 313.704 498.8 313.576 498.202 313.576C497.584 313.576 496.826 313.725 495.93 314.024L495.562 312.952C496.608 312.568 497.578 312.376 498.474 312.376C499.466 312.376 500.208 312.621 500.698 313.112C501.189 313.592 501.434 314.28 501.434 315.176V319.032ZM497.978 320.088C498.821 320.088 499.482 319.651 499.962 318.776V316.84H498.858C497.301 316.84 496.522 317.416 496.522 318.568C496.522 319.069 496.645 319.448 496.89 319.704C497.136 319.96 497.498 320.088 497.978 320.088ZM505.981 321.192C505.437 321.192 505.005 321.032 504.685 320.712C504.376 320.381 504.221 319.923 504.221 319.336V309.176L505.693 309V319.304C505.693 319.539 505.731 319.709 505.805 319.816C505.891 319.923 506.029 319.976 506.221 319.976C506.424 319.976 506.605 319.944 506.765 319.88L507.149 320.904C506.797 321.096 506.408 321.192 505.981 321.192ZM510.461 312.568V321H508.989V312.568H510.461ZM509.709 308.52C510.018 308.52 510.269 308.616 510.461 308.808C510.653 309 510.749 309.24 510.749 309.528C510.749 309.816 510.653 310.056 510.461 310.248C510.269 310.429 510.018 310.52 509.709 310.52C509.41 310.52 509.165 310.429 508.973 310.248C508.781 310.056 508.685 309.816 508.685 309.528C508.685 309.24 508.781 309 508.973 308.808C509.165 308.616 509.41 308.52 509.709 308.52ZM517.36 312.376C518.32 312.376 519.083 312.765 519.648 313.544C520.214 314.312 520.496 315.389 520.496 316.776C520.496 317.651 520.363 318.424 520.096 319.096C519.83 319.757 519.446 320.275 518.944 320.648C518.443 321.011 517.856 321.192 517.184 321.192C516.299 321.192 515.552 320.819 514.944 320.072L514.8 321H513.504V309.176L514.976 309V313.624C515.584 312.792 516.379 312.376 517.36 312.376ZM516.832 320.024C517.483 320.024 517.99 319.763 518.352 319.24C518.726 318.707 518.912 317.885 518.912 316.776C518.912 315.635 518.742 314.813 518.4 314.312C518.059 313.8 517.574 313.544 516.944 313.544C516.198 313.544 515.542 313.981 514.976 314.856V318.888C515.2 319.24 515.472 319.517 515.792 319.72C516.123 319.923 516.47 320.024 516.832 320.024ZM529.276 321H528.012L527.9 319.688C527.58 320.211 527.212 320.595 526.796 320.84C526.38 321.075 525.874 321.192 525.276 321.192C524.54 321.192 523.964 320.968 523.548 320.52C523.132 320.072 522.924 319.437 522.924 318.616V312.568H524.396V318.456C524.396 319.032 524.498 319.443 524.7 319.688C524.903 319.923 525.234 320.04 525.692 320.04C526.514 320.04 527.218 319.555 527.804 318.584V312.568H529.276V321ZM532.701 318.968C533.021 318.968 533.288 319.075 533.501 319.288C533.714 319.501 533.821 319.763 533.821 320.072C533.821 320.403 533.725 320.781 533.533 321.208L532.461 323.656H531.405L532.045 321C531.906 320.893 531.794 320.76 531.709 320.6C531.634 320.44 531.597 320.264 531.597 320.072C531.597 319.763 531.704 319.501 531.917 319.288C532.13 319.075 532.392 318.968 532.701 318.968ZM544.331 309.784C544.992 309.784 545.547 309.869 545.995 310.04C546.454 310.211 546.918 310.488 547.387 310.872L546.555 311.848C545.883 311.304 545.174 311.032 544.427 311.032C543.51 311.032 542.768 311.384 542.203 312.088C541.648 312.792 541.371 313.923 541.371 315.48C541.371 316.995 541.648 318.115 542.203 318.84C542.758 319.555 543.494 319.912 544.411 319.912C544.88 319.912 545.291 319.832 545.643 319.672C545.995 319.512 546.368 319.288 546.763 319L547.515 319.96C547.174 320.312 546.736 320.605 546.203 320.84C545.67 321.075 545.056 321.192 544.363 321.192C543.467 321.192 542.667 320.973 541.963 320.536C541.27 320.088 540.726 319.437 540.331 318.584C539.947 317.72 539.755 316.685 539.755 315.48C539.755 314.275 539.958 313.245 540.363 312.392C540.768 311.528 541.318 310.877 542.011 310.44C542.704 310.003 543.478 309.784 544.331 309.784ZM555.3 321L554.468 318.232H550.292L549.46 321H547.924L551.46 309.976H553.38L556.9 321H555.3ZM550.66 317H554.1L552.388 311.24L550.66 317Z" fill="white"/>
<path d="M598.378 74.784C599.039 74.784 599.594 74.8693 600.042 75.04C600.501 75.2107 600.965 75.488 601.434 75.872L600.602 76.848C599.93 76.304 599.221 76.032 598.474 76.032C597.557 76.032 596.815 76.384 596.25 77.088C595.695 77.792 595.418 78.9227 595.418 80.48C595.418 81.9947 595.695 83.1147 596.25 83.84C596.805 84.5547 597.541 84.912 598.458 84.912C598.927 84.912 599.338 84.832 599.69 84.672C600.042 84.512 600.415 84.288 600.81 84L601.562 84.96C601.221 85.312 600.783 85.6053 600.25 85.84C599.717 86.0747 599.103 86.192 598.41 86.192C597.514 86.192 596.714 85.9733 596.01 85.536C595.317 85.088 594.773 84.4373 594.378 83.584C593.994 82.72 593.802 81.6853 593.802 80.48C593.802 79.2747 594.005 78.2453 594.41 77.392C594.815 76.528 595.365 75.8773 596.058 75.44C596.751 75.0027 597.525 74.784 598.378 74.784ZM609.401 86H608.137L608.025 84.688C607.705 85.2107 607.337 85.5947 606.921 85.84C606.505 86.0747 605.999 86.192 605.401 86.192C604.665 86.192 604.089 85.968 603.673 85.52C603.257 85.072 603.049 84.4373 603.049 83.616V77.568H604.521V83.456C604.521 84.032 604.623 84.4427 604.825 84.688C605.028 84.9227 605.359 85.04 605.817 85.04C606.639 85.04 607.343 84.5547 607.929 83.584V77.568H609.401V86ZM616.106 77.376C616.405 77.376 616.682 77.408 616.938 77.472L616.666 78.912C616.41 78.848 616.165 78.816 615.93 78.816C615.407 78.816 614.986 79.008 614.666 79.392C614.346 79.776 614.095 80.3733 613.914 81.184V86H612.442V77.568H613.706L613.85 79.28C614.074 78.6507 614.378 78.176 614.762 77.856C615.146 77.536 615.594 77.376 616.106 77.376ZM622.278 77.376C622.576 77.376 622.854 77.408 623.11 77.472L622.838 78.912C622.582 78.848 622.336 78.816 622.102 78.816C621.579 78.816 621.158 79.008 620.838 79.392C620.518 79.776 620.267 80.3733 620.086 81.184V86H618.614V77.568H619.878L620.022 79.28C620.246 78.6507 620.55 78.176 620.934 77.856C621.318 77.536 621.766 77.376 622.278 77.376ZM630.669 81.536C630.669 81.7813 630.659 82.032 630.637 82.288H625.261C625.325 83.216 625.56 83.8987 625.965 84.336C626.371 84.7733 626.893 84.992 627.533 84.992C627.939 84.992 628.312 84.9333 628.653 84.816C628.995 84.6987 629.352 84.512 629.725 84.256L630.365 85.136C629.469 85.84 628.488 86.192 627.421 86.192C626.248 86.192 625.331 85.808 624.669 85.04C624.019 84.272 623.693 83.216 623.693 81.872C623.693 80.9973 623.832 80.224 624.109 79.552C624.397 78.8693 624.803 78.336 625.325 77.952C625.859 77.568 626.483 77.376 627.197 77.376C628.317 77.376 629.176 77.744 629.773 78.48C630.371 79.216 630.669 80.2347 630.669 81.536ZM629.213 81.104C629.213 80.272 629.048 79.6373 628.717 79.2C628.387 78.7627 627.891 78.544 627.229 78.544C626.024 78.544 625.368 79.4293 625.261 81.2H629.213V81.104ZM636.988 77.376C637.756 77.376 638.353 77.6053 638.78 78.064C639.217 78.5227 639.436 79.152 639.436 79.952V86H637.964V80.16C637.964 79.5627 637.852 79.1413 637.628 78.896C637.404 78.6507 637.073 78.528 636.636 78.528C636.188 78.528 635.793 78.656 635.452 78.912C635.111 79.168 634.791 79.536 634.492 80.016V86H633.02V77.568H634.284L634.412 78.816C634.711 78.368 635.079 78.016 635.516 77.76C635.964 77.504 636.455 77.376 636.988 77.376ZM646.651 85.616C646.096 86 645.467 86.192 644.763 86.192C644.048 86.192 643.488 85.9893 643.083 85.584C642.688 85.168 642.491 84.5707 642.491 83.792V78.704H641.019V77.568H642.491V75.664L643.963 75.488V77.568H645.963L645.803 78.704H643.963V83.728C643.963 84.1653 644.038 84.4853 644.187 84.688C644.347 84.88 644.608 84.976 644.971 84.976C645.302 84.976 645.675 84.864 646.091 84.64L646.651 85.616ZM654.011 74.976V84.672H658.539L658.363 86H652.491V74.976H654.011ZM663.141 77.376C664.325 77.376 665.242 77.7707 665.893 78.56C666.554 79.3493 666.885 80.4213 666.885 81.776C666.885 82.6507 666.736 83.424 666.437 84.096C666.138 84.7573 665.706 85.2747 665.141 85.648C664.576 86.0107 663.904 86.192 663.125 86.192C661.941 86.192 661.018 85.7973 660.357 85.008C659.696 84.2187 659.365 83.1467 659.365 81.792C659.365 80.9173 659.514 80.1493 659.813 79.488C660.112 78.816 660.544 78.2987 661.109 77.936C661.674 77.5627 662.352 77.376 663.141 77.376ZM663.141 78.56C661.68 78.56 660.949 79.6373 660.949 81.792C660.949 83.936 661.674 85.008 663.125 85.008C664.576 85.008 665.301 83.9307 665.301 81.776C665.301 79.632 664.581 78.56 663.141 78.56ZM672.389 77.376C672.89 77.376 673.349 77.4507 673.765 77.6C674.181 77.7387 674.581 77.968 674.965 78.288L674.261 79.216C673.962 79.0027 673.669 78.848 673.381 78.752C673.104 78.6453 672.794 78.592 672.453 78.592C671.77 78.592 671.237 78.864 670.853 79.408C670.48 79.952 670.293 80.7573 670.293 81.824C670.293 82.8907 670.48 83.68 670.853 84.192C671.226 84.6933 671.76 84.944 672.453 84.944C672.784 84.944 673.088 84.896 673.365 84.8C673.642 84.6933 673.952 84.528 674.293 84.304L674.965 85.264C674.197 85.8827 673.338 86.192 672.389 86.192C671.248 86.192 670.346 85.808 669.685 85.04C669.034 84.272 668.709 83.2107 668.709 81.856C668.709 80.96 668.858 80.176 669.157 79.504C669.456 78.832 669.877 78.3093 670.421 77.936C670.976 77.5627 671.632 77.376 672.389 77.376ZM682.481 84.032C682.481 84.3733 682.54 84.6293 682.657 84.8C682.775 84.96 682.951 85.0827 683.185 85.168L682.849 86.192C682.412 86.1387 682.06 86.016 681.793 85.824C681.527 85.632 681.329 85.3333 681.201 84.928C680.636 85.7707 679.799 86.192 678.689 86.192C677.857 86.192 677.201 85.9573 676.721 85.488C676.241 85.0187 676.001 84.4053 676.001 83.648C676.001 82.752 676.321 82.064 676.961 81.584C677.612 81.104 678.529 80.864 679.713 80.864H681.009V80.24C681.009 79.6427 680.865 79.216 680.577 78.96C680.289 78.704 679.847 78.576 679.249 78.576C678.631 78.576 677.873 78.7253 676.977 79.024L676.609 77.952C677.655 77.568 678.625 77.376 679.521 77.376C680.513 77.376 681.255 77.6213 681.745 78.112C682.236 78.592 682.481 79.28 682.481 80.176V84.032ZM679.025 85.088C679.868 85.088 680.529 84.6507 681.009 83.776V81.84H679.905C678.348 81.84 677.569 82.416 677.569 83.568C677.569 84.0693 677.692 84.448 677.937 84.704C678.183 84.96 678.545 85.088 679.025 85.088ZM689.76 85.616C689.206 86 688.576 86.192 687.872 86.192C687.158 86.192 686.598 85.9893 686.192 85.584C685.798 85.168 685.6 84.5707 685.6 83.792V78.704H684.128V77.568H685.6V75.664L687.072 75.488V77.568H689.072L688.912 78.704H687.072V83.728C687.072 84.1653 687.147 84.4853 687.296 84.688C687.456 84.88 687.718 84.976 688.08 84.976C688.411 84.976 688.784 84.864 689.2 84.64L689.76 85.616ZM692.758 77.568V86H691.286V77.568H692.758ZM692.006 73.52C692.315 73.52 692.566 73.616 692.758 73.808C692.95 74 693.046 74.24 693.046 74.528C693.046 74.816 692.95 75.056 692.758 75.248C692.566 75.4293 692.315 75.52 692.006 75.52C691.707 75.52 691.462 75.4293 691.27 75.248C691.078 75.056 690.982 74.816 690.982 74.528C690.982 74.24 691.078 74 691.27 73.808C691.462 73.616 691.707 73.52 692.006 73.52ZM698.969 77.376C700.153 77.376 701.071 77.7707 701.721 78.56C702.383 79.3493 702.713 80.4213 702.713 81.776C702.713 82.6507 702.564 83.424 702.265 84.096C701.967 84.7573 701.535 85.2747 700.969 85.648C700.404 86.0107 699.732 86.192 698.953 86.192C697.769 86.192 696.847 85.7973 696.185 85.008C695.524 84.2187 695.193 83.1467 695.193 81.792C695.193 80.9173 695.343 80.1493 695.641 79.488C695.94 78.816 696.372 78.2987 696.937 77.936C697.503 77.5627 698.18 77.376 698.969 77.376ZM698.969 78.56C697.508 78.56 696.777 79.6373 696.777 81.792C696.777 83.936 697.503 85.008 698.953 85.008C700.404 85.008 701.129 83.9307 701.129 81.776C701.129 79.632 700.409 78.56 698.969 78.56ZM709.113 77.376C709.881 77.376 710.478 77.6053 710.905 78.064C711.342 78.5227 711.561 79.152 711.561 79.952V86H710.089V80.16C710.089 79.5627 709.977 79.1413 709.753 78.896C709.529 78.6507 709.198 78.528 708.761 78.528C708.313 78.528 707.918 78.656 707.577 78.912C707.236 79.168 706.916 79.536 706.617 80.016V86H705.145V77.568H706.409L706.537 78.816C706.836 78.368 707.204 78.016 707.641 77.76C708.089 77.504 708.58 77.376 709.113 77.376Z" fill="white"/>
</svg>
